<svg width="333" height="321" viewBox="0 0 333 321" fill="none" xmlns="http://www.w3.org/2000/svg">
<path d="M236.5 244.5L45 95.5L207.5 203.5L187.5 141.5L240.5 103L47.5 95.5L287.5 88L206 148L236.5 244.5Z" fill="#7091E6"/>
<path d="M156 0L179 90.5L156 35L100 209L150.5 179L78.5 237.5L156 0Z" fill="#3D52A0"/>
<path d="M14.0946 260.72C13.9146 259.6 13.5946 258.67 13.1346 257.93C12.6746 257.17 12.0846 256.6 11.3646 256.22C10.6646 255.84 9.84461 255.66 8.90461 255.68C8.04461 255.68 7.28461 255.92 6.62461 256.4C5.98461 256.88 5.66461 257.5 5.66461 258.26C5.66461 258.88 5.83461 259.42 6.17461 259.88C6.53461 260.34 7.07461 260.77 7.79461 261.17C8.51461 261.57 9.42461 262 10.5246 262.46C11.2846 262.76 12.0646 263.11 12.8646 263.51C13.6646 263.91 14.4046 264.39 15.0846 264.95C15.7646 265.49 16.3146 266.13 16.7346 266.87C17.1546 267.59 17.3646 268.44 17.3646 269.42C17.3646 270.6 17.0446 271.65 16.4046 272.57C15.7646 273.49 14.8646 274.21 13.7046 274.73C12.5646 275.23 11.2246 275.48 9.68461 275.48C8.88461 275.48 8.01461 275.35 7.07461 275.09C6.15461 274.85 5.28461 274.49 4.46461 274.01L4.55461 275.27H2.24461V268.25H4.22461C4.50461 269.93 5.14461 271.2 6.14461 272.06C7.16461 272.9 8.37461 273.32 9.77461 273.32C10.4946 273.32 11.1246 273.19 11.6646 272.93C12.2046 272.67 12.6246 272.33 12.9246 271.91C13.2246 271.47 13.3746 271 13.3746 270.5C13.3746 269.8 13.1246 269.22 12.6246 268.76C12.1446 268.3 11.5346 267.91 10.7946 267.59C10.0746 267.27 9.33461 266.96 8.57461 266.66C7.61461 266.26 6.71461 265.84 5.87461 265.4C5.05461 264.94 4.33461 264.42 3.71461 263.84C3.09461 263.26 2.61461 262.6 2.27461 261.86C1.93461 261.1 1.76461 260.23 1.76461 259.25C1.76461 258.63 1.88461 257.99 2.12461 257.33C2.36461 256.65 2.75461 256.03 3.29461 255.47C3.83461 254.89 4.55461 254.42 5.45461 254.06C6.35461 253.7 7.46461 253.52 8.78461 253.52C9.58461 253.52 10.4546 253.64 11.3946 253.88C12.3546 254.12 13.1746 254.48 13.8546 254.96L13.7346 253.73H16.0746V260.72H14.0946ZM35.4143 260.78C35.4143 259.7 35.2643 258.81 34.9643 258.11C34.6643 257.39 34.2343 256.86 33.6743 256.52C33.1343 256.16 32.4843 255.99 31.7243 256.01H30.2843V270.08C30.2843 270.62 30.2743 271.14 30.2543 271.64C30.2343 272.14 30.2043 272.52 30.1643 272.78C30.5043 272.74 30.9343 272.72 31.4543 272.72C31.9943 272.7 32.3643 272.69 32.5643 272.69V275H23.8043V273.02C24.2643 273 24.6443 272.94 24.9443 272.84C25.2643 272.74 25.5043 272.51 25.6643 272.15C25.8443 271.79 25.9343 271.21 25.9343 270.41V256.04H24.5543C23.4143 256.06 22.5143 256.45 21.8543 257.21C21.1943 257.97 20.8643 259.16 20.8643 260.78H18.8843L19.0343 254H37.2143L37.3943 260.78H35.4143ZM36.4247 275V272.93C36.9847 272.93 37.4347 272.77 37.7747 272.45C38.1147 272.13 38.3947 271.71 38.6147 271.19C38.8547 270.67 39.0847 270.11 39.3047 269.51L45.1547 253.46H47.2547L53.6447 269.81C53.7647 270.11 53.9247 270.57 54.1247 271.19C54.3247 271.79 54.4447 272.32 54.4847 272.78C54.8247 272.74 55.1447 272.72 55.4447 272.72C55.7647 272.7 56.0247 272.69 56.2247 272.69V275H48.1547V273.02C48.7147 273.02 49.0947 272.91 49.2947 272.69C49.5147 272.45 49.6147 272.13 49.5947 271.73C49.5747 271.33 49.4647 270.88 49.2647 270.38L48.6647 268.73L42.1547 268.85L41.6747 270.26C41.5747 270.52 41.4247 270.91 41.2247 271.43C41.0447 271.93 40.8747 272.35 40.7147 272.69C41.0347 272.65 41.4147 272.63 41.8547 272.63C42.3147 272.61 42.6447 272.6 42.8447 272.6V275H36.4247ZM42.9047 266.6H47.9147L46.5347 262.85C46.2747 262.13 46.0447 261.41 45.8447 260.69C45.6447 259.95 45.4947 259.3 45.3947 258.74H45.3647C45.2847 259.08 45.1647 259.59 45.0047 260.27C44.8447 260.95 44.5947 261.76 44.2547 262.7L42.9047 266.6ZM57.8438 275V273.02C58.3038 273 58.6838 272.94 58.9838 272.84C59.3038 272.74 59.5438 272.51 59.7038 272.15C59.8838 271.79 59.9738 271.21 59.9738 270.41V258.92C59.9738 258.38 59.9838 257.86 60.0038 257.36C60.0438 256.86 60.0738 256.48 60.0938 256.22C59.7738 256.24 59.3738 256.26 58.8938 256.28C58.4138 256.28 58.0638 256.29 57.8438 256.31V254C59.2638 253.98 60.6838 253.97 62.1038 253.97C63.5238 253.97 64.9438 253.96 66.3638 253.94C68.1238 253.92 69.6538 254.12 70.9538 254.54C72.2538 254.96 73.2538 255.64 73.9538 256.58C74.6538 257.52 74.9838 258.79 74.9438 260.39C74.9238 261.23 74.7138 262.03 74.3138 262.79C73.9338 263.55 73.3538 264.22 72.5738 264.8C71.8138 265.38 70.8438 265.84 69.6638 266.18C70.0438 266.34 70.4138 266.6 70.7738 266.96C71.1538 267.32 71.4738 267.7 71.7338 268.1L73.1438 270.2C73.5838 270.88 73.9738 271.42 74.3138 271.82C74.6538 272.22 74.9938 272.52 75.3338 272.72C75.6738 272.9 76.0638 273 76.5038 273.02V275H71.5538C71.1938 274.74 70.8338 274.37 70.4738 273.89C70.1338 273.39 69.7638 272.82 69.3638 272.18L67.1438 268.58C66.8838 268.18 66.6538 267.84 66.4538 267.56C66.2738 267.28 66.0838 267.04 65.8838 266.84C65.5638 266.84 65.2938 266.84 65.0738 266.84C64.8538 266.84 64.6038 266.84 64.3238 266.84V270.05C64.3238 270.61 64.3138 271.14 64.2938 271.64C64.2738 272.14 64.2438 272.52 64.2038 272.78C64.4238 272.76 64.7038 272.75 65.0438 272.75C65.3838 272.73 65.7138 272.72 66.0338 272.72C66.3738 272.7 66.6138 272.69 66.7538 272.69V275H57.8438ZM65.7638 264.68C66.8838 264.68 67.7838 264.52 68.4638 264.2C69.1438 263.86 69.6338 263.36 69.9338 262.7C70.2538 262.02 70.4138 261.17 70.4138 260.15C70.4138 259.19 70.2638 258.44 69.9638 257.9C69.6638 257.34 69.2838 256.93 68.8238 256.67C68.3838 256.39 67.9338 256.22 67.4738 256.16C67.0138 256.08 66.6338 256.04 66.3338 256.04C65.9138 256.04 65.5538 256.09 65.2538 256.19C64.9538 256.29 64.7238 256.51 64.5638 256.85C64.4038 257.19 64.3238 257.71 64.3238 258.41V264.56C64.5438 264.58 64.7738 264.61 65.0138 264.65C65.2538 264.67 65.5038 264.68 65.7638 264.68ZM78.4102 273.02C78.8702 273 79.2502 272.94 79.5502 272.84C79.8702 272.74 80.1102 272.51 80.2702 272.15C80.4502 271.79 80.5402 271.21 80.5402 270.41V258.92C80.5402 258.38 80.5502 257.86 80.5702 257.36C80.6102 256.86 80.6402 256.48 80.6602 256.22C80.3402 256.24 79.9402 256.26 79.4602 256.28C78.9802 256.28 78.6302 256.29 78.4102 256.31V254L87.1402 253.97C89.1202 253.97 90.8302 254.27 92.2702 254.87C93.7302 255.45 94.9202 256.24 95.8402 257.24C96.7802 258.24 97.4802 259.36 97.9402 260.6C98.4002 261.82 98.6302 263.05 98.6302 264.29C98.6302 265.51 98.4102 266.75 97.9702 268.01C97.5502 269.27 96.8802 270.43 95.9602 271.49C95.0402 272.53 93.8402 273.38 92.3602 274.04C90.8802 274.68 89.0902 275 86.9902 275H78.4102V273.02ZM84.8902 270.08C84.8902 270.62 84.8802 271.14 84.8602 271.64C84.8402 272.14 84.8102 272.52 84.7702 272.78C84.9702 272.76 85.2402 272.76 85.5802 272.78C85.9402 272.78 86.3102 272.79 86.6902 272.81C87.0702 272.81 87.3802 272.81 87.6202 272.81C88.7202 272.81 89.6602 272.59 90.4402 272.15C91.2402 271.71 91.8902 271.12 92.3902 270.38C92.9102 269.62 93.2902 268.77 93.5302 267.83C93.7702 266.89 93.8902 265.92 93.8902 264.92C93.8902 262.88 93.6102 261.21 93.0502 259.91C92.4902 258.61 91.7002 257.64 90.6802 257C89.6802 256.36 88.4802 256.02 87.0802 255.98C86.6002 255.96 86.1902 256.01 85.8502 256.13C85.5302 256.23 85.2902 256.46 85.1302 256.82C84.9702 257.18 84.8902 257.75 84.8902 258.53V270.08ZM108.829 255.98C108.389 256 108.009 256.06 107.689 256.16C107.369 256.26 107.119 256.49 106.939 256.85C106.779 257.19 106.699 257.77 106.699 258.59V266.84C106.699 268.1 106.829 269.14 107.089 269.96C107.369 270.76 107.729 271.4 108.169 271.88C108.629 272.34 109.139 272.67 109.699 272.87C110.279 273.07 110.869 273.18 111.469 273.2C112.569 273.24 113.509 273.03 114.289 272.57C115.069 272.11 115.669 271.4 116.089 270.44C116.509 269.48 116.719 268.26 116.719 266.78V258.92C116.719 258.38 116.729 257.86 116.749 257.36C116.769 256.86 116.799 256.48 116.839 256.22C116.519 256.24 116.109 256.26 115.609 256.28C115.129 256.28 114.779 256.29 114.559 256.31V254H121.519V255.98C121.079 256 120.699 256.06 120.379 256.16C120.059 256.26 119.809 256.49 119.629 256.85C119.469 257.19 119.389 257.77 119.389 258.59V266.09C119.389 267.81 119.179 269.27 118.759 270.47C118.339 271.67 117.749 272.64 116.989 273.38C116.229 274.12 115.339 274.66 114.319 275C113.299 275.32 112.189 275.48 110.989 275.48C109.309 275.48 107.909 275.24 106.789 274.76C105.669 274.28 104.779 273.61 104.119 272.75C103.479 271.89 103.019 270.9 102.739 269.78C102.479 268.66 102.349 267.46 102.349 266.18V258.92C102.349 258.38 102.359 257.86 102.379 257.36C102.419 256.86 102.449 256.48 102.469 256.22C102.149 256.24 101.749 256.26 101.269 256.28C100.789 256.28 100.439 256.29 100.219 256.31V254H108.829V255.98ZM135.852 260.72C135.672 259.6 135.352 258.67 134.892 257.93C134.432 257.17 133.842 256.6 133.122 256.22C132.422 255.84 131.602 255.66 130.662 255.68C129.802 255.68 129.042 255.92 128.382 256.4C127.742 256.88 127.422 257.5 127.422 258.26C127.422 258.88 127.592 259.42 127.932 259.88C128.292 260.34 128.832 260.77 129.552 261.17C130.272 261.57 131.182 262 132.282 262.46C133.042 262.76 133.822 263.11 134.622 263.51C135.422 263.91 136.162 264.39 136.842 264.95C137.522 265.49 138.072 266.13 138.492 266.87C138.912 267.59 139.122 268.44 139.122 269.42C139.122 270.6 138.802 271.65 138.162 272.57C137.522 273.49 136.622 274.21 135.462 274.73C134.322 275.23 132.982 275.48 131.442 275.48C130.642 275.48 129.772 275.35 128.832 275.09C127.912 274.85 127.042 274.49 126.222 274.01L126.312 275.27H124.002V268.25H125.982C126.262 269.93 126.902 271.2 127.902 272.06C128.922 272.9 130.132 273.32 131.532 273.32C132.252 273.32 132.882 273.19 133.422 272.93C133.962 272.67 134.382 272.33 134.682 271.91C134.982 271.47 135.132 271 135.132 270.5C135.132 269.8 134.882 269.22 134.382 268.76C133.902 268.3 133.292 267.91 132.552 267.59C131.832 267.27 131.092 266.96 130.332 266.66C129.372 266.26 128.472 265.84 127.632 265.4C126.812 264.94 126.092 264.42 125.472 263.84C124.852 263.26 124.372 262.6 124.032 261.86C123.692 261.1 123.522 260.23 123.522 259.25C123.522 258.63 123.642 257.99 123.882 257.33C124.122 256.65 124.512 256.03 125.052 255.47C125.592 254.89 126.312 254.42 127.212 254.06C128.112 253.7 129.222 253.52 130.542 253.52C131.342 253.52 132.212 253.64 133.152 253.88C134.112 254.12 134.932 254.48 135.612 254.96L135.492 253.73H137.832V260.72H135.852ZM157.172 260.78C157.172 259.7 157.022 258.81 156.722 258.11C156.422 257.39 155.992 256.86 155.432 256.52C154.892 256.16 154.242 255.99 153.482 256.01H152.042V270.08C152.042 270.62 152.032 271.14 152.012 271.64C151.992 272.14 151.962 272.52 151.922 272.78C152.262 272.74 152.692 272.72 153.212 272.72C153.752 272.7 154.122 272.69 154.322 272.69V275H145.562V273.02C146.022 273 146.402 272.94 146.702 272.84C147.022 272.74 147.262 272.51 147.422 272.15C147.602 271.79 147.692 271.21 147.692 270.41V256.04H146.312C145.172 256.06 144.272 256.45 143.612 257.21C142.952 257.97 142.622 259.16 142.622 260.78H140.642L140.792 254H158.972L159.152 260.78H157.172ZM181.175 260.72C180.995 259.6 180.675 258.67 180.215 257.93C179.755 257.17 179.165 256.6 178.445 256.22C177.745 255.84 176.925 255.66 175.985 255.68C175.125 255.68 174.365 255.92 173.705 256.4C173.065 256.88 172.745 257.5 172.745 258.26C172.745 258.88 172.915 259.42 173.255 259.88C173.615 260.34 174.155 260.77 174.875 261.17C175.595 261.57 176.505 262 177.605 262.46C178.365 262.76 179.145 263.11 179.945 263.51C180.745 263.91 181.485 264.39 182.165 264.95C182.845 265.49 183.395 266.13 183.815 266.87C184.235 267.59 184.445 268.44 184.445 269.42C184.445 270.6 184.125 271.65 183.485 272.57C182.845 273.49 181.945 274.21 180.785 274.73C179.645 275.23 178.305 275.48 176.765 275.48C175.965 275.48 175.095 275.35 174.155 275.09C173.235 274.85 172.365 274.49 171.545 274.01L171.635 275.27H169.325V268.25H171.305C171.585 269.93 172.225 271.2 173.225 272.06C174.245 272.9 175.455 273.32 176.855 273.32C177.575 273.32 178.205 273.19 178.745 272.93C179.285 272.67 179.705 272.33 180.005 271.91C180.305 271.47 180.455 271 180.455 270.5C180.455 269.8 180.205 269.22 179.705 268.76C179.225 268.3 178.615 267.91 177.875 267.59C177.155 267.27 176.415 266.96 175.655 266.66C174.695 266.26 173.795 265.84 172.955 265.4C172.135 264.94 171.415 264.42 170.795 263.84C170.175 263.26 169.695 262.6 169.355 261.86C169.015 261.1 168.845 260.23 168.845 259.25C168.845 258.63 168.965 257.99 169.205 257.33C169.445 256.65 169.835 256.03 170.375 255.47C170.915 254.89 171.635 254.42 172.535 254.06C173.435 253.7 174.545 253.52 175.865 253.52C176.665 253.52 177.535 253.64 178.475 253.88C179.435 254.12 180.255 254.48 180.935 254.96L180.815 253.73H183.155V260.72H181.175ZM196.974 275.48C195.074 275.48 193.454 275.16 192.114 274.52C190.794 273.88 189.724 273.03 188.904 271.97C188.084 270.89 187.484 269.7 187.104 268.4C186.724 267.1 186.534 265.8 186.534 264.5C186.534 263.24 186.744 261.97 187.164 260.69C187.604 259.39 188.254 258.2 189.114 257.12C189.994 256.04 191.094 255.17 192.414 254.51C193.734 253.85 195.284 253.52 197.064 253.52C198.884 253.52 200.454 253.85 201.774 254.51C203.094 255.17 204.174 256.05 205.014 257.15C205.854 258.23 206.474 259.41 206.874 260.69C207.294 261.97 207.504 263.24 207.504 264.5C207.504 265.74 207.284 267 206.844 268.28C206.424 269.56 205.774 270.75 204.894 271.85C204.034 272.93 202.944 273.81 201.624 274.49C200.304 275.15 198.754 275.48 196.974 275.48ZM197.304 273.29C198.344 273.29 199.214 273.04 199.914 272.54C200.614 272.02 201.174 271.35 201.594 270.53C202.014 269.71 202.314 268.82 202.494 267.86C202.674 266.88 202.764 265.93 202.764 265.01C202.764 263.63 202.644 262.37 202.404 261.23C202.164 260.09 201.794 259.11 201.294 258.29C200.794 257.45 200.154 256.81 199.374 256.37C198.614 255.91 197.714 255.69 196.674 255.71C195.654 255.73 194.794 256.01 194.094 256.55C193.394 257.07 192.834 257.75 192.414 258.59C191.994 259.41 191.694 260.31 191.514 261.29C191.334 262.27 191.244 263.22 191.244 264.14C191.244 265.08 191.344 266.08 191.544 267.14C191.764 268.2 192.104 269.2 192.564 270.14C193.024 271.08 193.644 271.84 194.424 272.42C195.204 273 196.164 273.29 197.304 273.29ZM209.689 275V273.02C210.149 273 210.529 272.94 210.829 272.84C211.149 272.74 211.389 272.51 211.549 272.15C211.729 271.79 211.819 271.21 211.819 270.41V258.92C211.819 258.38 211.829 257.86 211.849 257.36C211.889 256.86 211.919 256.48 211.939 256.22C211.619 256.24 211.219 256.26 210.739 256.28C210.259 256.28 209.909 256.29 209.689 256.31V254H224.689L224.869 259.82H222.889C222.889 258.72 222.699 257.89 222.319 257.33C221.939 256.77 221.469 256.4 220.909 256.22C220.349 256.02 219.799 255.93 219.259 255.95L218.179 255.98C217.759 255.98 217.399 256.04 217.099 256.16C216.799 256.26 216.569 256.5 216.409 256.88C216.249 257.24 216.169 257.81 216.169 258.59V263.81H219.259L219.139 261.23H221.449V268.52H219.469C219.469 267.68 219.339 267.07 219.079 266.69C218.819 266.31 218.459 266.08 217.999 266C217.559 265.9 217.069 265.86 216.529 265.88H216.169V270.08C216.169 270.62 216.159 271.14 216.139 271.64C216.119 272.14 216.089 272.52 216.049 272.78C216.269 272.76 216.559 272.75 216.919 272.75C217.279 272.73 217.629 272.72 217.969 272.72C218.329 272.7 218.579 272.69 218.719 272.69V275H209.689ZM242.338 260.78C242.338 259.7 242.188 258.81 241.888 258.11C241.588 257.39 241.158 256.86 240.598 256.52C240.058 256.16 239.408 255.99 238.648 256.01H237.208V270.08C237.208 270.62 237.198 271.14 237.178 271.64C237.158 272.14 237.128 272.52 237.088 272.78C237.428 272.74 237.858 272.72 238.378 272.72C238.918 272.7 239.288 272.69 239.488 272.69V275H230.728V273.02C231.188 273 231.568 272.94 231.868 272.84C232.188 272.74 232.428 272.51 232.588 272.15C232.768 271.79 232.858 271.21 232.858 270.41V256.04H231.478C230.338 256.06 229.438 256.45 228.778 257.21C228.118 257.97 227.788 259.16 227.788 260.78H225.808L225.958 254H244.138L244.318 260.78H242.338ZM253.03 275.18L247.69 259.01C247.49 258.43 247.33 257.9 247.21 257.42C247.11 256.94 247.06 256.54 247.06 256.22C246.68 256.24 246.34 256.26 246.04 256.28C245.76 256.28 245.49 256.29 245.23 256.31V254H254.08V255.98C253.34 255.96 252.79 256.1 252.43 256.4C252.09 256.7 252.05 257.31 252.31 258.23C252.61 259.37 252.91 260.51 253.21 261.65C253.51 262.79 253.81 263.93 254.11 265.07C254.29 265.75 254.45 266.39 254.59 266.99C254.75 267.59 254.92 268.37 255.1 269.33H255.13C255.21 269.05 255.33 268.62 255.49 268.04C255.65 267.46 255.82 266.84 256 266.18C256.2 265.5 256.37 264.89 256.51 264.35C256.67 263.79 256.78 263.4 256.84 263.18C257.16 262.16 257.47 261.14 257.77 260.12C258.09 259.1 258.4 258.08 258.7 257.06C259.02 256.04 259.33 255.02 259.63 254H262.33C262.61 254.92 262.89 255.84 263.17 256.76C263.47 257.68 263.76 258.6 264.04 259.52C264.32 260.44 264.6 261.36 264.88 262.28C265.18 263.2 265.47 264.12 265.75 265.04C265.97 265.72 266.16 266.43 266.32 267.17C266.5 267.89 266.67 268.62 266.83 269.36H266.86C267.04 268.72 267.22 268.06 267.4 267.38C267.6 266.68 267.8 265.96 268 265.22C268.14 264.7 268.28 264.18 268.42 263.66C268.56 263.14 268.7 262.62 268.84 262.1C268.98 261.56 269.12 261.03 269.26 260.51C269.4 259.99 269.54 259.47 269.68 258.95C269.8 258.47 269.96 257.98 270.16 257.48C270.36 256.96 270.61 256.54 270.91 256.22C270.59 256.24 270.18 256.26 269.68 256.28C269.18 256.28 268.82 256.29 268.6 256.31V254H275.35V255.98C274.91 256 274.49 256.12 274.09 256.34C273.71 256.54 273.36 256.87 273.04 257.33C272.72 257.79 272.43 258.41 272.17 259.19C271.37 261.85 270.56 264.51 269.74 267.17C268.92 269.83 268.1 272.5 267.28 275.18H264.61L261.07 264.44C260.81 263.66 260.59 262.9 260.41 262.16C260.25 261.4 260.09 260.68 259.93 260C259.83 260.68 259.71 261.34 259.57 261.98C259.43 262.6 259.26 263.25 259.06 263.93L255.64 275.18H253.03ZM273.319 275V272.93C273.879 272.93 274.329 272.77 274.669 272.45C275.009 272.13 275.289 271.71 275.509 271.19C275.749 270.67 275.979 270.11 276.199 269.51L282.049 253.46H284.149L290.539 269.81C290.659 270.11 290.819 270.57 291.019 271.19C291.219 271.79 291.339 272.32 291.379 272.78C291.719 272.74 292.039 272.72 292.339 272.72C292.659 272.7 292.919 272.69 293.119 272.69V275H285.049V273.02C285.609 273.02 285.989 272.91 286.189 272.69C286.409 272.45 286.509 272.13 286.489 271.73C286.469 271.33 286.359 270.88 286.159 270.38L285.559 268.73L279.049 268.85L278.569 270.26C278.469 270.52 278.319 270.91 278.119 271.43C277.939 271.93 277.769 272.35 277.609 272.69C277.929 272.65 278.309 272.63 278.749 272.63C279.209 272.61 279.539 272.6 279.739 272.6V275H273.319ZM279.799 266.6H284.809L283.429 262.85C283.169 262.13 282.939 261.41 282.739 260.69C282.539 259.95 282.389 259.3 282.289 258.74H282.259C282.179 259.08 282.059 259.59 281.899 260.27C281.739 260.95 281.489 261.76 281.149 262.7L279.799 266.6ZM294.738 275V273.02C295.198 273 295.578 272.94 295.878 272.84C296.198 272.74 296.438 272.51 296.598 272.15C296.778 271.79 296.868 271.21 296.868 270.41V258.92C296.868 258.38 296.878 257.86 296.898 257.36C296.938 256.86 296.968 256.48 296.988 256.22C296.668 256.24 296.268 256.26 295.788 256.28C295.308 256.28 294.958 256.29 294.738 256.31V254C296.158 253.98 297.578 253.97 298.998 253.97C300.418 253.97 301.838 253.96 303.258 253.94C305.018 253.92 306.548 254.12 307.848 254.54C309.148 254.96 310.148 255.64 310.848 256.58C311.548 257.52 311.878 258.79 311.838 260.39C311.818 261.23 311.608 262.03 311.208 262.79C310.828 263.55 310.248 264.22 309.468 264.8C308.708 265.38 307.738 265.84 306.558 266.18C306.938 266.34 307.308 266.6 307.668 266.96C308.048 267.32 308.368 267.7 308.628 268.1L310.038 270.2C310.478 270.88 310.868 271.42 311.208 271.82C311.548 272.22 311.888 272.52 312.228 272.72C312.568 272.9 312.958 273 313.398 273.02V275H308.448C308.088 274.74 307.728 274.37 307.368 273.89C307.028 273.39 306.658 272.82 306.258 272.18L304.038 268.58C303.778 268.18 303.548 267.84 303.348 267.56C303.168 267.28 302.978 267.04 302.778 266.84C302.458 266.84 302.188 266.84 301.968 266.84C301.748 266.84 301.498 266.84 301.218 266.84V270.05C301.218 270.61 301.208 271.14 301.188 271.64C301.168 272.14 301.138 272.52 301.098 272.78C301.318 272.76 301.598 272.75 301.938 272.75C302.278 272.73 302.608 272.72 302.928 272.72C303.268 272.7 303.508 272.69 303.648 272.69V275H294.738ZM302.658 264.68C303.778 264.68 304.678 264.52 305.358 264.2C306.038 263.86 306.528 263.36 306.828 262.7C307.148 262.02 307.308 261.17 307.308 260.15C307.308 259.19 307.158 258.44 306.858 257.9C306.558 257.34 306.178 256.93 305.718 256.67C305.278 256.39 304.828 256.22 304.368 256.16C303.908 256.08 303.528 256.04 303.228 256.04C302.808 256.04 302.448 256.09 302.148 256.19C301.848 256.29 301.618 256.51 301.458 256.85C301.298 257.19 301.218 257.71 301.218 258.41V264.56C301.438 264.58 301.668 264.61 301.908 264.65C302.148 264.67 302.398 264.68 302.658 264.68ZM325.505 267.77C325.505 266.93 325.375 266.33 325.115 265.97C324.855 265.59 324.495 265.35 324.035 265.25C323.595 265.15 323.105 265.11 322.565 265.13L321.785 265.16V270.08C321.785 270.62 321.775 271.13 321.755 271.61C321.735 272.09 321.705 272.46 321.665 272.72H325.685C326.285 272.72 326.865 272.59 327.425 272.33C327.985 272.05 328.445 271.6 328.805 270.98C329.165 270.34 329.345 269.48 329.345 268.4H331.295L331.145 275H315.305V273.02C315.765 273 316.145 272.94 316.445 272.84C316.765 272.74 317.005 272.51 317.165 272.15C317.345 271.79 317.435 271.21 317.435 270.41V258.92C317.435 258.38 317.445 257.86 317.465 257.36C317.505 256.86 317.535 256.48 317.555 256.22C317.235 256.24 316.835 256.26 316.355 256.28C315.875 256.28 315.525 256.29 315.305 256.31V254H330.305L330.485 259.82H328.505C328.505 258.72 328.315 257.89 327.935 257.33C327.555 256.77 327.085 256.4 326.525 256.22C325.965 256.02 325.415 255.93 324.875 255.95L323.795 255.98C323.375 255.98 323.015 256.04 322.715 256.16C322.415 256.26 322.185 256.5 322.025 256.88C321.865 257.24 321.785 257.81 321.785 258.59V263.09H325.295L325.175 260.48H327.485V267.77H325.505ZM92.244 298.72C92.064 297.6 91.744 296.67 91.284 295.93C90.824 295.17 90.234 294.6 89.514 294.22C88.814 293.84 87.994 293.66 87.054 293.68C86.194 293.68 85.434 293.92 84.774 294.4C84.134 294.88 83.814 295.5 83.814 296.26C83.814 296.88 83.984 297.42 84.324 297.88C84.684 298.34 85.224 298.77 85.944 299.17C86.664 299.57 87.574 300 88.674 300.46C89.434 300.76 90.214 301.11 91.014 301.51C91.814 301.91 92.554 302.39 93.234 302.95C93.914 303.49 94.464 304.13 94.884 304.87C95.304 305.59 95.514 306.44 95.514 307.42C95.514 308.6 95.194 309.65 94.554 310.57C93.914 311.49 93.014 312.21 91.854 312.73C90.714 313.23 89.374 313.48 87.834 313.48C87.034 313.48 86.164 313.35 85.224 313.09C84.304 312.85 83.434 312.49 82.614 312.01L82.704 313.27H80.394V306.25H82.374C82.654 307.93 83.294 309.2 84.294 310.06C85.314 310.9 86.524 311.32 87.924 311.32C88.644 311.32 89.274 311.19 89.814 310.93C90.354 310.67 90.774 310.33 91.074 309.91C91.374 309.47 91.524 309 91.524 308.5C91.524 307.8 91.274 307.22 90.774 306.76C90.294 306.3 89.684 305.91 88.944 305.59C88.224 305.27 87.484 304.96 86.724 304.66C85.764 304.26 84.864 303.84 84.024 303.4C83.204 302.94 82.484 302.42 81.864 301.84C81.244 301.26 80.764 300.6 80.424 299.86C80.084 299.1 79.914 298.23 79.914 297.25C79.914 296.63 80.034 295.99 80.274 295.33C80.514 294.65 80.904 294.03 81.444 293.47C81.984 292.89 82.704 292.42 83.604 292.06C84.504 291.7 85.614 291.52 86.934 291.52C87.734 291.52 88.604 291.64 89.544 291.88C90.504 292.12 91.324 292.48 92.004 292.96L91.884 291.73H94.224V298.72H92.244ZM108.044 313.48C106.144 313.48 104.524 313.16 103.184 312.52C101.864 311.88 100.794 311.03 99.9737 309.97C99.1537 308.89 98.5537 307.7 98.1737 306.4C97.7937 305.1 97.6037 303.8 97.6037 302.5C97.6037 301.24 97.8137 299.97 98.2337 298.69C98.6737 297.39 99.3237 296.2 100.184 295.12C101.064 294.04 102.164 293.17 103.484 292.51C104.804 291.85 106.354 291.52 108.134 291.52C109.954 291.52 111.524 291.85 112.844 292.51C114.164 293.17 115.244 294.05 116.084 295.15C116.924 296.23 117.544 297.41 117.944 298.69C118.364 299.97 118.574 301.24 118.574 302.5C118.574 303.74 118.354 305 117.914 306.28C117.494 307.56 116.844 308.75 115.964 309.85C115.104 310.93 114.014 311.81 112.694 312.49C111.374 313.15 109.824 313.48 108.044 313.48ZM108.374 311.29C109.414 311.29 110.284 311.04 110.984 310.54C111.684 310.02 112.244 309.35 112.664 308.53C113.084 307.71 113.384 306.82 113.564 305.86C113.744 304.88 113.834 303.93 113.834 303.01C113.834 301.63 113.714 300.37 113.474 299.23C113.234 298.09 112.864 297.11 112.364 296.29C111.864 295.45 111.224 294.81 110.444 294.37C109.684 293.91 108.784 293.69 107.744 293.71C106.724 293.73 105.864 294.01 105.164 294.55C104.464 295.07 103.904 295.75 103.484 296.59C103.064 297.41 102.764 298.31 102.584 299.29C102.404 300.27 102.314 301.22 102.314 302.14C102.314 303.08 102.414 304.08 102.614 305.14C102.834 306.2 103.174 307.2 103.634 308.14C104.094 309.08 104.714 309.84 105.494 310.42C106.274 311 107.234 311.29 108.374 311.29ZM120.759 313V311.02C121.219 311 121.599 310.94 121.899 310.84C122.219 310.74 122.459 310.51 122.619 310.15C122.799 309.79 122.889 309.21 122.889 308.41V296.92C122.889 296.38 122.899 295.86 122.919 295.36C122.959 294.86 122.989 294.48 123.009 294.22C122.689 294.24 122.289 294.26 121.809 294.28C121.329 294.28 120.979 294.29 120.759 294.31V292H129.369V293.98C128.929 294 128.549 294.06 128.229 294.16C127.909 294.26 127.659 294.49 127.479 294.85C127.319 295.19 127.239 295.77 127.239 296.59V308.08C127.239 308.62 127.229 309.13 127.209 309.61C127.189 310.09 127.159 310.46 127.119 310.72H131.139C132.319 310.7 133.239 310.29 133.899 309.49C134.579 308.67 134.919 307.44 134.919 305.8H136.929L136.749 313H120.759ZM146.373 293.98C145.933 294 145.553 294.06 145.233 294.16C144.913 294.26 144.663 294.49 144.483 294.85C144.323 295.19 144.243 295.77 144.243 296.59V304.84C144.243 306.1 144.373 307.14 144.633 307.96C144.913 308.76 145.273 309.4 145.713 309.88C146.173 310.34 146.683 310.67 147.243 310.87C147.823 311.07 148.413 311.18 149.013 311.2C150.113 311.24 151.053 311.03 151.833 310.57C152.613 310.11 153.213 309.4 153.633 308.44C154.053 307.48 154.263 306.26 154.263 304.78V296.92C154.263 296.38 154.273 295.86 154.293 295.36C154.313 294.86 154.343 294.48 154.383 294.22C154.063 294.24 153.653 294.26 153.153 294.28C152.673 294.28 152.323 294.29 152.103 294.31V292H159.063V293.98C158.623 294 158.243 294.06 157.923 294.16C157.603 294.26 157.353 294.49 157.173 294.85C157.013 295.19 156.933 295.77 156.933 296.59V304.09C156.933 305.81 156.723 307.27 156.303 308.47C155.883 309.67 155.293 310.64 154.533 311.38C153.773 312.12 152.883 312.66 151.863 313C150.843 313.32 149.733 313.48 148.533 313.48C146.853 313.48 145.453 313.24 144.333 312.76C143.213 312.28 142.323 311.61 141.663 310.75C141.023 309.89 140.563 308.9 140.283 307.78C140.023 306.66 139.893 305.46 139.893 304.18V296.92C139.893 296.38 139.903 295.86 139.923 295.36C139.963 294.86 139.993 294.48 140.013 294.22C139.693 294.24 139.293 294.26 138.813 294.28C138.333 294.28 137.983 294.29 137.763 294.31V292H146.373V293.98ZM176.786 298.78C176.786 297.7 176.636 296.81 176.336 296.11C176.036 295.39 175.606 294.86 175.046 294.52C174.506 294.16 173.856 293.99 173.096 294.01H171.656V308.08C171.656 308.62 171.646 309.14 171.626 309.64C171.606 310.14 171.576 310.52 171.536 310.78C171.876 310.74 172.306 310.72 172.826 310.72C173.366 310.7 173.736 310.69 173.936 310.69V313H165.176V311.02C165.636 311 166.016 310.94 166.316 310.84C166.636 310.74 166.876 310.51 167.036 310.15C167.216 309.79 167.306 309.21 167.306 308.41V294.04H165.926C164.786 294.06 163.886 294.45 163.226 295.21C162.566 295.97 162.236 297.16 162.236 298.78H160.256L160.406 292H178.586L178.766 298.78H176.786ZM189.398 293.98C188.958 294 188.578 294.06 188.258 294.16C187.938 294.26 187.688 294.49 187.508 294.85C187.348 295.19 187.268 295.77 187.268 296.59V308.08C187.268 308.62 187.258 309.14 187.238 309.64C187.218 310.14 187.188 310.52 187.148 310.78C187.468 310.74 187.868 310.72 188.348 310.72C188.848 310.7 189.198 310.69 189.398 310.69V313H180.788V311.02C181.248 311 181.628 310.94 181.928 310.84C182.248 310.74 182.488 310.51 182.648 310.15C182.828 309.79 182.918 309.21 182.918 308.41V296.92C182.918 296.38 182.928 295.86 182.948 295.36C182.988 294.86 183.018 294.48 183.038 294.22C182.718 294.24 182.318 294.26 181.838 294.28C181.358 294.28 181.008 294.29 180.788 294.31V292H189.398V293.98ZM202.028 313.48C200.128 313.48 198.508 313.16 197.168 312.52C195.848 311.88 194.778 311.03 193.958 309.97C193.138 308.89 192.538 307.7 192.158 306.4C191.778 305.1 191.588 303.8 191.588 302.5C191.588 301.24 191.798 299.97 192.218 298.69C192.658 297.39 193.308 296.2 194.168 295.12C195.048 294.04 196.148 293.17 197.468 292.51C198.788 291.85 200.338 291.52 202.118 291.52C203.938 291.52 205.508 291.85 206.828 292.51C208.148 293.17 209.228 294.05 210.068 295.15C210.908 296.23 211.528 297.41 211.928 298.69C212.348 299.97 212.558 301.24 212.558 302.5C212.558 303.74 212.338 305 211.898 306.28C211.478 307.56 210.828 308.75 209.948 309.85C209.088 310.93 207.998 311.81 206.678 312.49C205.358 313.15 203.808 313.48 202.028 313.48ZM202.358 311.29C203.398 311.29 204.268 311.04 204.968 310.54C205.668 310.02 206.228 309.35 206.648 308.53C207.068 307.71 207.368 306.82 207.548 305.86C207.728 304.88 207.818 303.93 207.818 303.01C207.818 301.63 207.698 300.37 207.458 299.23C207.218 298.09 206.848 297.11 206.348 296.29C205.848 295.45 205.208 294.81 204.428 294.37C203.668 293.91 202.768 293.69 201.728 293.71C200.708 293.73 199.848 294.01 199.148 294.55C198.448 295.07 197.888 295.75 197.468 296.59C197.048 297.41 196.748 298.31 196.568 299.29C196.388 300.27 196.298 301.22 196.298 302.14C196.298 303.08 196.398 304.08 196.598 305.14C196.818 306.2 197.158 307.2 197.618 308.14C198.078 309.08 198.698 309.84 199.478 310.42C200.258 311 201.218 311.29 202.358 311.29ZM230.703 313.3L221.103 301.03C220.843 300.69 220.573 300.33 220.293 299.95C220.013 299.57 219.733 299.18 219.453 298.78H219.423L219.483 308.08C219.483 308.62 219.473 309.14 219.453 309.64C219.433 310.14 219.403 310.52 219.363 310.78C219.683 310.74 220.083 310.72 220.563 310.72C221.063 310.7 221.413 310.69 221.613 310.69V313H214.773V311.02C215.233 311 215.613 310.94 215.913 310.84C216.233 310.74 216.473 310.51 216.633 310.15C216.813 309.79 216.903 309.21 216.903 308.41L216.843 296.92C216.843 296.38 216.853 295.86 216.873 295.36C216.893 294.86 216.923 294.48 216.963 294.22C216.643 294.24 216.233 294.26 215.733 294.28C215.253 294.28 214.903 294.29 214.683 294.31V292H219.393L228.573 303.58C229.073 304.22 229.483 304.77 229.803 305.23C230.143 305.69 230.433 306.09 230.673 306.43H230.703V296.92C230.703 296.38 230.713 295.86 230.733 295.36C230.753 294.86 230.773 294.48 230.793 294.22C230.473 294.24 230.073 294.26 229.593 294.28C229.113 294.28 228.763 294.29 228.543 294.31V292H235.383V293.98C234.943 294 234.563 294.06 234.243 294.16C233.923 294.26 233.673 294.49 233.493 294.85C233.333 295.19 233.253 295.77 233.253 296.59V313.3H230.703ZM250.066 298.72C249.886 297.6 249.566 296.67 249.106 295.93C248.646 295.17 248.056 294.6 247.336 294.22C246.636 293.84 245.816 293.66 244.876 293.68C244.016 293.68 243.256 293.92 242.596 294.4C241.956 294.88 241.636 295.5 241.636 296.26C241.636 296.88 241.806 297.42 242.146 297.88C242.506 298.34 243.046 298.77 243.766 299.17C244.486 299.57 245.396 300 246.496 300.46C247.256 300.76 248.036 301.11 248.836 301.51C249.636 301.91 250.376 302.39 251.056 302.95C251.736 303.49 252.286 304.13 252.706 304.87C253.126 305.59 253.336 306.44 253.336 307.42C253.336 308.6 253.016 309.65 252.376 310.57C251.736 311.49 250.836 312.21 249.676 312.73C248.536 313.23 247.196 313.48 245.656 313.48C244.856 313.48 243.986 313.35 243.046 313.09C242.126 312.85 241.256 312.49 240.436 312.01L240.526 313.27H238.216V306.25H240.196C240.476 307.93 241.116 309.2 242.116 310.06C243.136 310.9 244.346 311.32 245.746 311.32C246.466 311.32 247.096 311.19 247.636 310.93C248.176 310.67 248.596 310.33 248.896 309.91C249.196 309.47 249.346 309 249.346 308.5C249.346 307.8 249.096 307.22 248.596 306.76C248.116 306.3 247.506 305.91 246.766 305.59C246.046 305.27 245.306 304.96 244.546 304.66C243.586 304.26 242.686 303.84 241.846 303.4C241.026 302.94 240.306 302.42 239.686 301.84C239.066 301.26 238.586 300.6 238.246 299.86C237.906 299.1 237.736 298.23 237.736 297.25C237.736 296.63 237.856 295.99 238.096 295.33C238.336 294.65 238.726 294.03 239.266 293.47C239.806 292.89 240.526 292.42 241.426 292.06C242.326 291.7 243.436 291.52 244.756 291.52C245.556 291.52 246.426 291.64 247.366 291.88C248.326 292.12 249.146 292.48 249.826 292.96L249.706 291.73H252.046V298.72H250.066Z" fill="url(#paint0_linear_22_9)"/>
<defs>
<linearGradient id="paint0_linear_22_9" x1="0" y1="283" x2="333" y2="283" gradientUnits="userSpaceOnUse">
<stop stop-color="#7091E6"/>
<stop offset="1" stop-color="#3D52A0"/>
</linearGradient>
</defs>
</svg>
